<svg width="25px" height="40px" viewBox="0 0 25 40" version="1.1">
    <g id="fresh-brewed-web-icon" stroke="none" stroke-width="1" fill="none" fill-rule="evenodd">
        <g id="Group-2" fill="#E2E0D7">
            <path d="M7.00655637,37.2630092 C6.64304968,37.1903205 6.35224869,37.0585741 6.13414468,36.8677662 C5.91604067,36.6769582 5.75700888,36.4270944 5.65704454,36.1181672 C5.5570802,35.8092401 5.50709878,35.409458 5.50709878,34.9188089 L5.50709878,30.9936364 C5.50709878,29.9214774 5.36624205,29.0583115 5.08452437,28.4041128 C4.80280668,27.7499141 4.32571131,27.2138426 3.65322394,26.7958824 C4.32571131,26.3779221 4.80280668,25.8463936 5.08452437,25.201281 C5.36624205,24.5561684 5.50709878,23.6884595 5.50709878,22.5981283 L5.50709878,18.7002139 C5.50709878,18.2095649 5.5570802,17.8052398 5.65704454,17.4872265 C5.75700888,17.1692133 5.91604067,16.9148065 6.13414468,16.7239985 C6.35224869,16.5331906 6.71221981,16.2197229 7.23930451,16.2197229 L7.23930451,13.6029412 C7.23930451,13.6029412 6.03418457,13.7165156 5.28899586,13.943668 C4.54380715,14.1708203 3.96220517,14.5070007 3.54417248,14.9522193 C3.12613979,15.3974378 2.8353388,15.9516812 2.67176079,16.614966 C2.50818278,17.2782508 2.42639501,18.0369282 2.42639501,18.8910209 L2.42639501,22.8979679 C2.42639501,23.6066832 2.23101309,24.2199853 1.8402434,24.7378926 C1.44947371,25.2557999 0.836065381,25.5147496 0,25.5147496 L0,28.1042732 C0.836065381,28.1042732 1.44947371,28.363223 1.8402434,28.8811303 C2.23101309,29.3990376 2.42639501,30.0032537 2.42639501,30.6937968 L2.42639501,34.7280019 C2.42639501,35.6002669 2.50818278,36.3634872 2.67176079,37.017686 C2.8353388,37.6718847 3.13522732,38.221585 3.57143535,38.6668036 C4.00764337,39.1120222 4.60742041,39.4436596 5.37078445,39.6617258 C6.09630074,39.8689803 7.02702535,39.9777439 8.16298379,39.9880195 L15.9475831,39.9888235 C17.0534365,39.9733686 17.9615991,39.8648489 18.672653,39.6617258 C19.4360171,39.4436596 20.0357941,39.1120222 20.4720021,38.6668036 C20.9082102,38.221585 21.2080987,37.6718847 21.3716767,37.017686 C21.5352547,36.3634872 21.6170425,35.6002669 21.6170425,34.7280019 L21.6170425,30.6937968 C21.6170425,30.0032537 21.8124244,29.3990376 22.2031941,28.8811303 C22.5939638,28.363223 23.2073721,28.1042732 24.0434375,28.1042732 L24.0434375,25.5147496 C23.2073721,25.5147496 22.5939638,25.2557999 22.2031941,24.7378926 C21.8124244,24.2199853 21.6170425,23.6066832 21.6170425,22.8979679 L21.6170425,18.8910209 C21.6170425,18.0369282 21.5352547,17.2782508 21.3716767,16.614966 C21.2080987,15.9516812 20.9172977,15.3974378 20.499265,14.9522193 C20.0812323,14.5070007 19.4996303,14.1708203 18.7544416,13.943668 C18.0092529,13.7165156 16.804133,13.6029412 16.804133,13.6029412 L16.804133,16.2197229 C17.3312177,16.2197229 17.6911888,16.5331906 17.9092928,16.7239985 C18.1273968,16.9148065 18.2864286,17.1692133 18.386393,17.4872265 C18.4863573,17.8052398 18.5363387,18.2095649 18.5363387,18.7002139 L18.5363387,22.5981283 C18.5363387,23.6884595 18.6771954,24.5561684 18.9589131,25.201281 C19.2406308,25.8463936 19.7177262,26.3779221 20.3902136,26.7958824 C19.7177262,27.2138426 19.2406308,27.7499141 18.9589131,28.4041128 C18.6771954,29.0583115 18.5363387,29.9214774 18.5363387,30.9936364 L18.5363387,34.9188089 C18.5363387,35.8819348 18.3273255,36.5315807 17.9092928,36.8677662 C17.593692,37.121575 17.0968064,37.2795738 16.4186267,37.3417647 L7.57731405,37.3417647 C7.3687606,37.3236455 7.17850851,37.2973937 7.00655637,37.2630092 Z" id="{-}"></path>
            <path d="M6.55432705,23.2696634 C6.55432705,24.1833101 6.43629567,24.9104098 6.20022936,25.4509841 C5.96416305,25.9915585 5.56437934,26.4369546 5.00086622,26.7871859 C5.56437934,27.1374171 5.96416305,27.58662 6.20022936,28.1348081 C6.43629567,28.6829962 6.55432705,29.406289 6.55432705,30.3047083 L6.55432705,34.3114481 C6.55432705,34.7225891 6.59620915,35.0575879 6.67997462,35.3164545 C6.76374008,35.5753211 6.89700132,35.7846953 7.07976233,35.9445835 C7.26252334,36.1044717 7.50620104,36.214869 7.81080272,36.2757788 C7.95489061,36.3045914 8.11431301,36.3265892 8.28907109,36.3417722 L15.6976796,36.3417722 C16.2659627,36.2896592 16.6823296,36.1572635 16.9467884,35.9445835 C17.2970804,35.6628758 17.4722237,35.1185027 17.4722237,34.3114481 L17.4722237,30.3047083 C17.4722237,29.406289 17.5902551,28.6829962 17.8263214,28.1348081 C18.0623877,27.58662 18.4621714,27.1374171 19.0256845,26.7871859 C18.4621714,26.4369546 18.0623877,25.9915585 17.8263214,25.4509841 C17.5902551,24.9104098 17.4722237,24.1833101 17.4722237,23.2696634 L17.4722237,20.2205882 L6.55432705,20.2205882 L6.55432705,23.2696634 Z" id="Combined-Shape"></path>
            <path d="M14.5196011,0.347632902 C13.0918168,1.0388322 12.1721228,2.0827132 11.7752324,3.42697906 C11.1028416,5.70436315 12.0602528,8.65041551 14.1346491,11.1725294 C15.1080806,12.3560569 15.2584152,13.5272202 14.7275313,14.7150764 C14.2845934,15.706153 13.382505,16.6745848 12.155935,17.5863754 C11.5134745,18.0639589 10.8236345,18.4951299 10.1337092,18.8719258 C10.0916943,18.8948718 10.0502071,18.9173238 10.0092786,18.9392769 C8.9412043,19.4735784 8.16317868,19.7508006 8.16317868,19.7508006 C8.16317868,19.7508006 17.0151138,15.7893202 13.1851848,11.1327765 C10.0453159,7.31522868 9.20443522,2.02272964 14.5196011,0.347632902 Z M18.5547435,-5.44009282e-15 C16.7466997,0.847446692 12.4528979,3.49080398 15.4509633,9.48711532 C16.3392131,11.2636684 16.1993453,12.8351593 15.5265069,14.1811489 C15.7869353,13.0447226 15.4984429,11.9045498 14.5890693,10.7989059 C12.627063,8.41343909 11.7307427,5.65536961 12.3394978,3.59351902 C12.9513505,1.52117712 15.0089392,0.226446691 18.5547435,-4.96130914e-15 Z" id="Combined-Shape"></path>
        </g>
    </g>
</svg>
